<svg xmlns="http://www.w3.org/2000/svg" xmlns:xlink="http://www.w3.org/1999/xlink" viewBox="0 0 729.03 1020.28"><defs><style>.cls-1,.cls-12{fill:#413b4e;}.cls-11,.cls-13,.cls-15,.cls-18,.cls-2,.cls-4,.cls-9{fill:none;}.cls-11,.cls-12,.cls-15,.cls-19,.cls-2,.cls-4,.cls-7,.cls-8,.cls-9{stroke:#000;}.cls-11,.cls-12,.cls-13,.cls-15,.cls-18,.cls-19,.cls-2,.cls-7,.cls-8{stroke-miterlimit:10;}.cls-12,.cls-19,.cls-2,.cls-4,.cls-7,.cls-8{stroke-width:0.72px;}.cls-3,.cls-7{fill:#e3e3e3;}.cls-4,.cls-9{stroke-linecap:round;stroke-linejoin:round;}.cls-19,.cls-5{fill:#35303d;}.cls-6{fill:#d7d7d7;}.cls-14,.cls-8{fill:#c9c9c9;}.cls-9{stroke-width:0.8px;}.cls-10{fill:#adadad;}.cls-11{stroke-width:0.72px;}.cls-13{stroke:#413b4e;stroke-width:1.44px;}.cls-15{stroke-width:0.38px;}.cls-16{fill:#71648b;}.cls-17{fill:url(#linear-gradient);}.cls-18{stroke:#e3e3e3;stroke-width:3.56px;}</style><linearGradient id="linear-gradient" x1="241.2" y1="305.83" x2="580.53" y2="524.83" gradientUnits="userSpaceOnUse"><stop offset="0" stop-color="#413b4e"/><stop offset="0.47" stop-color="#3f3a4c"/><stop offset="0.64" stop-color="#3a3445"/><stop offset="0.76" stop-color="#302c3a"/><stop offset="0.86" stop-color="#221f29"/><stop offset="0.95" stop-color="#100e13"/><stop offset="1"/></linearGradient></defs><g id="Layer_2" data-name="Layer 2"><g id="Basing"><path class="cls-1" d="M701.11,292.55a12.1,12.1,0,0,1,10.08-8.25l8.52-.6c4.38-.31,7,2.91,5.88,7.15L697.27,395.63a12,12,0,0,1-10,8.26l-9.07.63c-4.38.31-7-2.9-5.84-7.14Z"/><path class="cls-2" d="M701.11,292.55a12.1,12.1,0,0,1,10.08-8.25l8.52-.6c4.38-.31,7,2.91,5.88,7.15L697.27,395.63a12,12,0,0,1-10,8.26l-9.07.63c-4.38.31-7-2.9-5.84-7.14Z"/><path class="cls-3" d="M712.87,322.72c1.18-4.6,5.63-9,9.88-9.73s6.8,2.4,5.64,7L717,365.43c-1.16,4.61-5.67,9-10,9.78s-7-2.37-5.77-7Z"/><path class="cls-4" d="M712.87,322.72c1.18-4.6,5.63-9,9.88-9.73s6.8,2.4,5.64,7L717,365.43c-1.16,4.61-5.67,9-10,9.78s-7-2.37-5.77-7Z"/><path class="cls-5" d="M304.67,871.61l20.75,15.44s-8.8,9.54-10.37,55.63H294.88S291.55,870.66,304.67,871.61Z"/><path class="cls-1" d="M303.34,871.61l18.05,15.44s-7.65,9.54-9,55.63H294.83S291.93,870.66,303.34,871.61Z"/><path class="cls-2" d="M304.67,871.61l20.75,15.44s-8.8,9.54-10.37,55.63H294.88S291.55,870.66,304.67,871.61Z"/><path class="cls-5" d="M289.07,986.8s-11.08,13.13-4.63,27.66c0,0,9.67,12.29,35.8,0,0,0,7.54-5,2-27.66"/><path class="cls-1" d="M288.15,988.24a24.56,24.56,0,0,0-4,24.78s9.87,6.9,30.87,0c0,0,7.4-3.6,2.62-26.22"/><path class="cls-2" d="M289.07,986.8s-11.08,13.13-4.63,27.66c0,0,9.67,12.29,35.8,0,0,0,7.54-5,2-27.66"/><path class="cls-6" d="M315.05,942.68c13.09,34.35,6.46,53.48,6.46,53.48-16.44,7.2-32.52,0-32.52,0-2.88-38.88,5.68-59.19,5.68-59.19Z"/><path class="cls-3" d="M312,941.66c12.71,33.61,6.94,55.38,6.94,55.38-14.72,5.22-30.09-.9-30.09-.9-3.34-38.23,5.68-59,5.68-59Z"/><path class="cls-2" d="M315.05,942.68c13.09,34.35,6.46,53.48,6.46,53.48-16.44,7.2-32.52,0-32.52,0-2.88-38.88,5.68-59.19,5.68-59.19Z"/><path class="cls-5" d="M435.46,871.61,414.7,887.05s8.81,9.54,10.38,55.63h20.17S448.58,870.66,435.46,871.61Z"/><path class="cls-1" d="M436.79,871.61l-18.05,15.44s7.65,9.54,9,55.63H445.3S448.2,870.66,436.79,871.61Z"/><path class="cls-2" d="M435.46,871.61,414.7,887.05s8.81,9.54,10.38,55.63h20.17S448.58,870.66,435.46,871.61Z"/><path class="cls-5" d="M451.06,986.8s11.08,13.13,4.63,27.66c0,0-9.67,12.29-35.8,0,0,0-7.55-5-2-27.66"/><path class="cls-1" d="M452,988.24a24.56,24.56,0,0,1,4,24.78s-9.87,6.9-30.87,0c0,0-7.4-3.6-2.62-26.22"/><path class="cls-2" d="M451.06,986.8s11.08,13.13,4.63,27.66c0,0-9.67,12.29-35.8,0,0,0-7.55-5-2-27.66"/><path class="cls-6" d="M425.08,942.68c-13.09,34.35-6.46,53.48-6.46,53.48,16.44,7.2,32.52,0,32.52,0C454,957.28,445.46,937,445.46,937Z"/><path class="cls-3" d="M428.16,941.66c-12.71,33.61-6.94,55.38-6.94,55.38,14.71,5.22,30.09-.9,30.09-.9,3.34-38.23-5.68-59-5.68-59Z"/><path class="cls-2" d="M425.08,942.68c-13.09,34.35-6.46,53.48-6.46,53.48,16.44,7.2,32.52,0,32.52,0C454,957.28,445.46,937,445.46,937Z"/><path class="cls-7" d="M164.08,590.79s46.41,272.05,200.41,316.78l.15,0c2.73-.11,150.2-7.23,200.84-316.81Z"/><path class="cls-6" d="M552.08,604.25l12.84-14.09S528.75,878.8,365.58,907.66C365.58,907.66,509.89,867.92,552.08,604.25Z"/><path class="cls-1" d="M25.54,293.28a12.1,12.1,0,0,0-10.26-8l-8.53-.4c-4.39-.21-7,3.06-5.72,7.27L31.69,396.25a12,12,0,0,0,10.22,8l9.08.43c4.39.2,6.95-3.07,5.69-7.27Z"/><path class="cls-2" d="M25.54,293.28a12.1,12.1,0,0,0-10.26-8l-8.53-.4c-4.39-.21-7,3.06-5.72,7.27L31.69,396.25a12,12,0,0,0,10.22,8l9.08.43c4.39.2,6.95-3.07,5.69-7.27Z"/><path class="cls-8" d="M565.48,590.79s-188.64,231.84-401.4,0"/><path class="cls-3" d="M37.06,271.12c-26.41,0-38.43-19.36-26.71-43L101.82,43.43c11.72-23.67,42.92-43,69.32-43H560.8c26.41,0,57,19.67,67.87,43.72l83.26,183.29c10.93,24-1.74,43.71-28.15,43.71Z"/><path class="cls-9" d="M37.06,271.12c-26.41,0-38.43-19.36-26.71-43L101.82,43.43c11.72-23.67,42.92-43,69.32-43H560.8c26.41,0,57,19.67,67.87,43.72l83.26,183.29c10.93,24-1.74,43.71-28.15,43.71Z"/><path class="cls-3" d="M16.38,329.2c-1.39-4.55-6-8.73-10.32-9.29s-6.68,2.71-5.32,7.26l13.43,44.88c1.36,4.55,6.06,8.74,10.44,9.32s6.84-2.68,5.46-7.23Z"/><path class="cls-4" d="M16.38,329.2c-1.39-4.55-6-8.73-10.32-9.29s-6.68,2.71-5.32,7.26l13.43,44.88c1.36,4.55,6.06,8.74,10.44,9.32s6.84-2.68,5.46-7.23Z"/><path class="cls-1" d="M276,81.76l-10.49,27.55a4.3,4.3,0,0,0,1.19,4.53s94.58,78.8,198.82-1.84L454.67,84.44A8.63,8.63,0,0,0,451,80.51S355.23,34.24,276,81.76Z"/><path class="cls-4" d="M276,81.76l-10.49,27.55a4.3,4.3,0,0,0,1.19,4.53s94.58,78.8,198.82-1.84L454.67,84.44A8.63,8.63,0,0,0,451,80.51S355.23,34.24,276,81.76Z"/><path class="cls-10" d="M294.4,591.1s73.15,90,139.71,0"/><path class="cls-11" d="M452.79,81.76l-.48.41c-86.66,72.76-175.92-.41-175.92-.41"/><path class="cls-12" d="M164,820.61l36.27,9.66S181.56,879.79,164,820.61Z"/><path class="cls-13" d="M399.47,806.56a2.37,2.37,0,0,1-2.63-2.4l3.72-35.41c.14-1.32-.62-1.48-1.68-.34l-24.6,29.15a6.32,6.32,0,0,1-4.52,2.07h-.26a6.39,6.39,0,0,1-4.53-2.06l-24.51-28.65c-1.07-1.13-1.83-1-1.69.35l3.75,34.89a2.36,2.36,0,0,1-2.62,2.4h-7.1a3.26,3.26,0,0,1-3.26-2.4l-8.88-55.87c-.21-1.32,1.23-2.41,3.2-2.41h6.63a9.08,9.08,0,0,1,5.64,2.07L368.25,784a1.92,1.92,0,0,0,3.2,0L403,748a9,9,0,0,1,5.62-2.08h6.63c2,0,3.41,1.09,3.2,2.41l-8.76,55.87a3.25,3.25,0,0,1-3.26,2.4Z"/><polygon class="cls-5" points="309.25 591.1 315.19 591.1 319.52 607.5 314.02 605.19 309.25 591.1"/><path class="cls-5" d="M314,605.19l101.16,2.18-2.12,2.71s-42.61,30.95-97-2.44Z"/><path class="cls-1" d="M319.23,607.36l-4.61-16.57H420l-4.76,16.57S371.07,633.28,319.23,607.36Z"/><polygon class="cls-5" points="419.95 590.8 414.01 590.8 409.68 610.08 415.18 607.37 419.95 590.8"/><path class="cls-14" d="M8.77,320.94s2.61.63,6,5.78,14.84,47.43,14.84,47.43,2.28,6-3,6.76"/><path class="cls-14" d="M720,314s-6.78,5.05-6.88,7.93-11.75,46.93-11.75,46.93-.73,3.8,2,5.62"/><path class="cls-5" d="M449.84,84.45s5.22,11.06,8.73,32.52l6.53-4.81S454.19,81.3,453.15,82,453.38,81.58,449.84,84.45Z"/><path class="cls-15" d="M365.58,907.34l6.21-.46a37,37,0,0,1-6.21.72"/><path class="cls-2" d="M164.08,590.79s46.41,272.05,200.41,316.78l.15,0c2.73-.11,150.2-7.23,200.84-316.81Z"/><path class="cls-3" d="M160.41,590.79c-28.25,0-58.09-22.11-66.31-49.13L7.88,258.34c-8.22-27,8.16-49.13,36.41-49.13H677.05c28.25,0,45.38,22.32,38.06,49.6L639.43,541.19c-7.31,27.28-36.4,49.6-64.65,49.6Z"/><path class="cls-2" d="M160.41,590.79c-28.25,0-58.09-22.11-66.31-49.13L7.88,258.34c-8.22-27,8.16-49.13,36.41-49.13H677.05c28.25,0,45.38,22.32,38.06,49.6L639.43,541.19c-7.31,27.28-36.4,49.6-64.65,49.6Z"/><path class="cls-16" d="M192.11,557.25c-22.62,0-46.92-17.57-54-39l-71-215.43c-7.08-21.48,5.63-39,28.25-39H626c22.62,0,36,17.77,29.65,39.49L593.36,517.76c-6.31,21.72-30,39.49-52.59,39.49Z"/><path class="cls-17" d="M198.4,542.57c-20.91,0-43.64-16.16-50.52-35.91L81,314.3c-6.88-19.75,4.61-35.9,25.52-35.9H612.69c20.91,0,33,16.35,26.87,36.35L580.88,506.22c-6.13,20-28.25,36.35-49.16,36.35Z"/><ellipse class="cls-3" cx="204.33" cy="387.49" rx="38.16" ry="54.79" transform="translate(-91.49 64.4) rotate(-14.67)"/><ellipse class="cls-3" cx="526.56" cy="387.31" rx="54.79" ry="38.16" transform="translate(18.49 798.59) rotate(-75.33)"/><path class="cls-18" d="M274.89,456.61s79.23,113.22,168.64,0"/><path class="cls-19" d="M191.79,693.83s-15.12,8.57-13.68,64.73l30.24,7.2s5.29-1.45,5.53-16.56S191.79,693.83,191.79,693.83Z"/><path class="cls-1" d="M191,694.76s-13.35,8.37-12.08,63.25l26.71,7s4.67-1.41,4.88-16.18S191,694.76,191,694.76Z"/><path class="cls-2" d="M191.79,693.83s-15.12,8.57-13.68,64.73l30.24,7.2s5.29-1.45,5.53-16.56S191.79,693.83,191.79,693.83Z"/><path class="cls-6" d="M178.11,759.52s-28.8,8.56-28.8,52.78c0,0,23,28.53,69.12,14.27,0,0,10.08-28.53-10.08-59.92C208.35,766.65,196.83,755.24,178.11,759.52Z"/><path class="cls-4" d="M712.87,322.72c1.18-4.6,5.63-9,9.88-9.73s6.8,2.4,5.64,7L717,365.43c-1.16,4.61-5.67,9-10,9.78s-7-2.37-5.77-7Z"/><path class="cls-4" d="M712.87,322.72c1.18-4.6,5.63-9,9.88-9.73s6.8,2.4,5.64,7L717,365.43c-1.16,4.61-5.67,9-10,9.78s-7-2.37-5.77-7Z"/><path class="cls-4" d="M16.38,329.2c-1.39-4.55-6-8.73-10.32-9.29s-6.68,2.71-5.32,7.26l13.43,44.88c1.36,4.55,6.06,8.74,10.44,9.32s6.84-2.68,5.46-7.23Z"/><path class="cls-4" d="M276,81.76l-10.49,27.55a4.3,4.3,0,0,0,1.19,4.53s94.58,78.8,198.82-1.84L454.67,84.44A8.63,8.63,0,0,0,451,80.51S355.23,34.24,276,81.76Z"/><path class="cls-11" d="M452.79,81.76l-.48.41c-86.66,72.76-175.92-.41-175.92-.41"/></g><g id="Shadows"><path class="cls-12" d="M574.71,819.68,539,831.21S560.25,879.68,574.71,819.68Z"/><path class="cls-19" d="M540.37,694.74s15.54,7.77,17,63.92l-29.83,8.77s-5.36-1.17-6.38-16.26S540.37,694.74,540.37,694.74Z"/><path class="cls-1" d="M541.2,695.62s13.78,7.67,15.36,62.53l-26.31,8.42s-4.74-1.17-5.71-15.91S541.2,695.62,541.2,695.62Z"/><path class="cls-2" d="M540.37,694.74s15.54,7.77,17,63.92l-29.83,8.77s-5.36-1.17-6.38-16.26S540.37,694.74,540.37,694.74Z"/><path class="cls-6" d="M557.45,759.62s29.2,7,31.5,51.21c0,0-21.52,29.69-68.28,17.85,0,0-11.55-28,7-60.36C527.62,768.32,538.53,756.32,557.45,759.62Z"/><path class="cls-3" d="M555.77,758.75s30.19,8.49,32.45,51.77c0,0-16.27,26.52-60.33,20,0,0-10.35-30.34,5.85-62C533.74,768.56,540.27,757.84,555.77,758.75Z"/><path class="cls-4" d="M557.13,759.31s29.21,7.13,31.53,51.71c0,0-21.51,30-68.27,18,0,0-11.57-28.23,6.92-60.92C527.31,768.07,538.21,756,557.13,759.31Z"/><path class="cls-3" d="M178.38,759.28s-28.64,9.94-28.64,53.28c0,0,21.89,25.92,61.42,16.25,0,0,8.92-29.4-8.91-60.16C202.25,768.65,194.94,755.09,178.38,759.28Z"/><path class="cls-4" d="M178.41,759.19s-28.8,8.64-28.8,53.28c0,0,23,28.8,69.12,14.4,0,0,10.08-28.8-10.08-60.48C208.65,766.39,197.13,754.87,178.41,759.19Z"/></g></g></svg>