<svg xmlns="http://www.w3.org/2000/svg" xmlns:xlink="http://www.w3.org/1999/xlink" viewBox="0 0 1020.28 729.03"><defs><style>.cls-1,.cls-12{fill:#413b4e;}.cls-11,.cls-13,.cls-15,.cls-18,.cls-2,.cls-4,.cls-9{fill:none;}.cls-11,.cls-12,.cls-15,.cls-19,.cls-2,.cls-4,.cls-7,.cls-8,.cls-9{stroke:#000;}.cls-11,.cls-12,.cls-13,.cls-15,.cls-18,.cls-19,.cls-2,.cls-7,.cls-8{stroke-miterlimit:10;}.cls-12,.cls-19,.cls-2,.cls-4,.cls-7,.cls-8{stroke-width:0.72px;}.cls-3,.cls-7{fill:#e3e3e3;}.cls-4,.cls-9{stroke-linecap:round;stroke-linejoin:round;}.cls-19,.cls-5{fill:#35303d;}.cls-6{fill:#d7d7d7;}.cls-14,.cls-8{fill:#c9c9c9;}.cls-9{stroke-width:0.8px;}.cls-10{fill:#adadad;}.cls-11{stroke-width:0.72px;}.cls-13{stroke:#413b4e;stroke-width:1.44px;}.cls-15{stroke-width:0.38px;}.cls-16{fill:#71648b;}.cls-17{fill:url(#linear-gradient);}.cls-18{stroke:#e3e3e3;stroke-width:3.56px;}</style><linearGradient id="linear-gradient" x1="390.9" y1="156.09" x2="730.23" y2="375.08" gradientTransform="translate(870.54 -149.7) rotate(90)" gradientUnits="userSpaceOnUse"><stop offset="0" stop-color="#413b4e"/><stop offset="0.47" stop-color="#3f3a4c"/><stop offset="0.64" stop-color="#3a3445"/><stop offset="0.76" stop-color="#302c3a"/><stop offset="0.86" stop-color="#221f29"/><stop offset="0.95" stop-color="#100e13"/><stop offset="1"/></linearGradient></defs><g id="Layer_2" data-name="Layer 2"><g id="Basing"><path class="cls-1" d="M727.73,701.11A12.1,12.1,0,0,1,736,711.19l.6,8.52c.31,4.38-2.91,7-7.15,5.88L624.65,697.27a12,12,0,0,1-8.26-10l-.63-9.07c-.31-4.38,2.9-7,7.14-5.84Z"/><path class="cls-2" d="M727.73,701.11A12.1,12.1,0,0,1,736,711.19l.6,8.52c.31,4.38-2.91,7-7.15,5.88L624.65,697.27a12,12,0,0,1-8.26-10l-.63-9.07c-.31-4.38,2.9-7,7.14-5.84Z"/><path class="cls-3" d="M697.56,712.87c4.6,1.18,9,5.63,9.73,9.88s-2.4,6.8-7,5.64L654.85,717c-4.61-1.16-9-5.67-9.78-10s2.37-7,7-5.77Z"/><path class="cls-4" d="M697.56,712.87c4.6,1.18,9,5.63,9.73,9.88s-2.4,6.8-7,5.64L654.85,717c-4.61-1.16-9-5.67-9.78-10s2.37-7,7-5.77Z"/><path class="cls-5" d="M148.67,304.67l-15.44,20.75s-9.54-8.8-55.63-10.37V294.88S149.62,291.55,148.67,304.67Z"/><path class="cls-1" d="M148.67,303.34l-15.44,18.05s-9.54-7.65-55.63-9V294.83S149.62,291.93,148.67,303.34Z"/><path class="cls-2" d="M148.67,304.67l-15.44,20.75s-9.54-8.8-55.63-10.37V294.88S149.62,291.55,148.67,304.67Z"/><path class="cls-5" d="M33.48,289.07S20.35,278,5.82,284.44c0,0-12.29,9.67,0,35.8,0,0,5,7.54,27.66,2"/><path class="cls-1" d="M32,288.15a24.56,24.56,0,0,0-24.78-4S.36,294,7.26,315c0,0,3.6,7.4,26.22,2.62"/><path class="cls-2" d="M33.48,289.07S20.35,278,5.82,284.44c0,0-12.29,9.67,0,35.8,0,0,5,7.54,27.66,2"/><path class="cls-6" d="M77.6,315.05c-34.35,13.09-53.48,6.46-53.48,6.46-7.2-16.44,0-32.52,0-32.52,38.88-2.88,59.19,5.68,59.19,5.68Z"/><path class="cls-3" d="M78.62,312c-33.61,12.71-55.38,6.94-55.38,6.94-5.22-14.72.9-30.09.9-30.09,38.23-3.34,59,5.68,59,5.68Z"/><path class="cls-2" d="M77.6,315.05c-34.35,13.09-53.48,6.46-53.48,6.46-7.2-16.44,0-32.52,0-32.52,38.88-2.88,59.19,5.68,59.19,5.68Z"/><path class="cls-5" d="M148.67,435.46,133.23,414.7s-9.54,8.81-55.63,10.38v20.17S149.62,448.58,148.67,435.46Z"/><path class="cls-1" d="M148.67,436.79l-15.44-18.05s-9.54,7.65-55.63,9V445.3S149.62,448.2,148.67,436.79Z"/><path class="cls-2" d="M148.67,435.46,133.23,414.7s-9.54,8.81-55.63,10.38v20.17S149.62,448.58,148.67,435.46Z"/><path class="cls-5" d="M33.48,451.06s-13.13,11.08-27.66,4.63c0,0-12.29-9.67,0-35.8,0,0,5-7.55,27.66-2"/><path class="cls-1" d="M32,452a24.56,24.56,0,0,1-24.78,4s-6.9-9.87,0-30.87c0,0,3.6-7.4,26.22-2.62"/><path class="cls-2" d="M33.48,451.06s-13.13,11.08-27.66,4.63c0,0-12.29-9.67,0-35.8,0,0,5-7.55,27.66-2"/><path class="cls-6" d="M77.6,425.08c-34.35-13.09-53.48-6.46-53.48-6.46-7.2,16.44,0,32.52,0,32.52C63,454,83.31,445.46,83.31,445.46Z"/><path class="cls-3" d="M78.62,428.16c-33.61-12.71-55.38-6.94-55.38-6.94-5.22,14.71.9,30.09.9,30.09,38.23,3.34,59-5.68,59-5.68Z"/><path class="cls-2" d="M77.6,425.08c-34.35-13.09-53.48-6.46-53.48-6.46-7.2,16.44,0,32.52,0,32.52C63,454,83.31,445.46,83.31,445.46Z"/><path class="cls-7" d="M429.49,164.08s-272,46.41-316.78,200.41l0,.15c.11,2.73,7.23,150.2,316.81,200.84Z"/><path class="cls-6" d="M416,552.08l14.09,12.84s-288.64-36.17-317.5-199.34C112.62,365.58,152.36,509.89,416,552.08Z"/><path class="cls-1" d="M727,25.54a12.1,12.1,0,0,0,8-10.26l.41-8.53c.2-4.39-3.07-7-7.28-5.72L624,31.69a12,12,0,0,0-8,10.22L615.56,51c-.2,4.39,3.07,6.95,7.27,5.69Z"/><path class="cls-2" d="M727,25.54a12.1,12.1,0,0,0,8-10.26l.41-8.53c.2-4.39-3.07-7-7.28-5.72L624,31.69a12,12,0,0,0-8,10.22L615.56,51c-.2,4.39,3.07,6.95,7.27,5.69Z"/><path class="cls-8" d="M429.49,565.48s-231.84-188.64,0-401.4"/><path class="cls-3" d="M749.16,37.06c0-26.41,19.36-38.43,43-26.71l184.66,91.47c23.67,11.72,43,42.92,43,69.32V560.8c0,26.41-19.67,57-43.72,67.87L792.87,711.93c-24,10.93-43.71-1.74-43.71-28.15Z"/><path class="cls-9" d="M749.16,37.06c0-26.41,19.36-38.43,43-26.71l184.66,91.47c23.67,11.72,43,42.92,43,69.32V560.8c0,26.41-19.67,57-43.72,67.87L792.87,711.93c-24,10.93-43.71-1.74-43.71-28.15Z"/><path class="cls-3" d="M691.08,16.38c4.55-1.39,8.73-6,9.29-10.32S697.66-.62,693.11.74L648.23,14.17c-4.55,1.36-8.74,6.06-9.31,10.44s2.67,6.84,7.22,5.46Z"/><path class="cls-4" d="M691.08,16.38c4.55-1.39,8.73-6,9.29-10.32S697.66-.62,693.11.74L648.23,14.17c-4.55,1.36-8.74,6.06-9.31,10.44s2.67,6.84,7.22,5.46Z"/><path class="cls-1" d="M938.52,276,911,265.54a4.3,4.3,0,0,0-4.53,1.19s-78.8,94.58,1.84,198.82l27.56-10.88a8.63,8.63,0,0,0,3.93-3.65S986,355.23,938.52,276Z"/><path class="cls-4" d="M938.52,276,911,265.54a4.3,4.3,0,0,0-4.53,1.19s-78.8,94.58,1.84,198.82l27.56-10.88a8.63,8.63,0,0,0,3.93-3.65S986,355.23,938.52,276Z"/><path class="cls-10" d="M429.18,294.4s-90.05,73.15,0,139.71"/><path class="cls-11" d="M938.52,452.79l-.41-.48c-72.76-86.66.41-175.92.41-175.92"/><path class="cls-12" d="M199.67,164,190,200.27S140.49,181.56,199.67,164Z"/><path class="cls-13" d="M212.62,401.09c-.18-1.33,1-2.41,2.67-2.42l44-.07c1.65,0,1.86-.56.47-1.24l-38-17.47a5.34,5.34,0,0,1-3.11-3.64l0-.22a4.1,4.1,0,0,1,2.42-3.66l39.46-17.43c1.65-.69,1.44-1.25-.47-1.25H209.8c-1.91,0-3.61-1.08-3.79-2.41l-.79-5.93c-.17-1.33,1.29-2.41,3.26-2.41h83c2,0,3.44,1.08,3.26,2.41l-.59,4.46c-.17,1.32-1.73,3-3.46,3.64l-51.25,21.63c-1.5.68-1.45,1.78.1,2.46l45.54,21.22a3.87,3.87,0,0,1,2.09,3.63l-.59,4.46a3.15,3.15,0,0,1-3.2,2.41l-66.82.08a3.14,3.14,0,0,1-3.2-2.41Z"/><polygon class="cls-5" points="429.18 309.25 429.18 315.19 412.78 319.52 415.09 314.02 429.18 309.25"/><path class="cls-5" d="M415.09,314l-2.18,101.16-2.71-2.12s-30.95-42.61,2.44-97Z"/><path class="cls-1" d="M412.92,319.23l16.57-4.61V420l-16.57-4.76S387,371.07,412.92,319.23Z"/><polygon class="cls-5" points="429.48 419.95 429.48 414.01 410.2 409.68 412.91 415.18 429.48 419.95"/><path class="cls-14" d="M699.34,8.77s-.63,2.61-5.78,6-47.43,14.84-47.43,14.84-6,2.28-6.76-3"/><path class="cls-14" d="M706.25,720s-5-6.78-7.93-6.88-46.93-11.75-46.93-11.75-3.8-.73-5.62,2"/><path class="cls-5" d="M935.83,449.84s-11.06,5.22-32.52,8.73l4.81,6.53s30.86-10.91,30.17-12S938.7,453.38,935.83,449.84Z"/><path class="cls-15" d="M112.94,365.58l.46,6.21a37,37,0,0,1-.72-6.21"/><path class="cls-2" d="M429.49,164.08s-272,46.41-316.78,200.41l0,.15c.11,2.73,7.23,150.2,316.81,200.84Z"/><path class="cls-3" d="M429.49,160.41c0-28.25,22.11-58.09,49.13-66.31L761.94,7.88C789-.34,811.07,16,811.07,44.29V677.05c0,28.25-22.32,45.38-49.6,38.06L479.09,639.43c-27.28-7.31-49.6-36.4-49.6-64.65Z"/><path class="cls-2" d="M429.49,160.41c0-28.25,22.11-58.09,49.13-66.31L761.94,7.88C789-.34,811.07,16,811.07,44.29V677.05c0,28.25-22.32,45.38-49.6,38.06L479.09,639.43c-27.28-7.31-49.6-36.4-49.6-64.65Z"/><path class="cls-16" d="M463,192.11c0-22.62,17.58-46.92,39.05-54l215.43-71c21.48-7.08,39,5.63,39,28.25V626c0,22.62-17.77,36-39.49,29.65L502.52,593.36c-21.72-6.31-39.49-30-39.49-52.59Z"/><path class="cls-17" d="M477.71,198.4c0-20.91,16.16-43.64,35.91-50.52L706,81c19.75-6.88,35.91,4.61,35.91,25.52V612.69c0,20.91-16.36,33-36.36,26.87L514.06,580.88c-20-6.13-36.35-28.25-36.35-49.16Z"/><ellipse class="cls-3" cx="632.79" cy="204.33" rx="54.79" ry="38.16" transform="translate(-31.12 166.96) rotate(-14.67)"/><ellipse class="cls-3" cx="632.97" cy="526.56" rx="38.16" ry="54.79" transform="translate(-36.75 1005.5) rotate(-75.33)"/><path class="cls-18" d="M563.67,274.89s-113.22,79.23,0,168.64"/><path class="cls-19" d="M326.45,191.79s-8.57-15.12-64.73-13.68l-7.2,30.24s1.45,5.29,16.56,5.53S326.45,191.79,326.45,191.79Z"/><path class="cls-1" d="M325.52,191s-8.37-13.35-63.25-12.08l-7,26.71s1.41,4.67,16.18,4.88S325.52,191,325.52,191Z"/><path class="cls-2" d="M326.45,191.79s-8.57-15.12-64.73-13.68l-7.2,30.24s1.45,5.29,16.56,5.53S326.45,191.79,326.45,191.79Z"/><path class="cls-6" d="M260.76,178.11s-8.56-28.8-52.78-28.8c0,0-28.53,23-14.27,69.12,0,0,28.53,10.08,59.92-10.08C253.63,208.35,265,196.83,260.76,178.11Z"/><path class="cls-4" d="M697.56,712.87c4.6,1.18,9,5.63,9.73,9.88s-2.4,6.8-7,5.64L654.85,717c-4.61-1.16-9-5.67-9.78-10s2.37-7,7-5.77Z"/><path class="cls-4" d="M697.56,712.87c4.6,1.18,9,5.63,9.73,9.88s-2.4,6.8-7,5.64L654.85,717c-4.61-1.16-9-5.67-9.78-10s2.37-7,7-5.77Z"/><path class="cls-4" d="M691.08,16.38c4.55-1.39,8.73-6,9.29-10.32S697.66-.62,693.11.74L648.23,14.17c-4.55,1.36-8.74,6.06-9.31,10.44s2.67,6.84,7.22,5.46Z"/><path class="cls-4" d="M938.52,276,911,265.54a4.3,4.3,0,0,0-4.53,1.19s-78.8,94.58,1.84,198.82l27.56-10.88a8.63,8.63,0,0,0,3.93-3.65S986,355.23,938.52,276Z"/><path class="cls-11" d="M938.52,452.79l-.41-.48c-72.76-86.66.41-175.92.41-175.92"/></g><g id="Shadows"><path class="cls-12" d="M200.6,574.71,189.07,539S140.6,560.25,200.6,574.71Z"/><path class="cls-19" d="M325.54,540.37s-7.77,15.54-63.92,17l-8.77-29.83s1.17-5.36,16.26-6.38S325.54,540.37,325.54,540.37Z"/><path class="cls-1" d="M324.66,541.2S317,555,262.13,556.56l-8.42-26.31s1.17-4.74,15.91-5.71S324.66,541.2,324.66,541.2Z"/><path class="cls-2" d="M325.54,540.37s-7.77,15.54-63.92,17l-8.77-29.83s1.17-5.36,16.26-6.38S325.54,540.37,325.54,540.37Z"/><path class="cls-6" d="M260.66,557.45s-7.05,29.2-51.21,31.5c0,0-29.69-21.52-17.85-68.28,0,0,28-11.55,60.36,7C252,527.62,264,538.53,260.66,557.45Z"/><path class="cls-3" d="M261.53,555.77S253,586,209.76,588.22c0,0-26.52-16.27-20-60.33,0,0,30.34-10.35,62,5.85C251.72,533.74,262.44,540.27,261.53,555.77Z"/><path class="cls-4" d="M261,557.13s-7.13,29.21-51.71,31.53c0,0-30-21.51-18-68.27,0,0,28.23-11.57,60.92,6.92C252.21,527.31,264.31,538.21,261,557.13Z"/><path class="cls-3" d="M261,178.38s-9.94-28.64-53.28-28.64c0,0-25.92,21.89-16.25,61.42,0,0,29.4,8.92,60.16-8.91C251.63,202.25,265.19,194.94,261,178.38Z"/><path class="cls-4" d="M261.09,178.41s-8.64-28.8-53.28-28.8c0,0-28.8,23-14.4,69.12,0,0,28.8,10.08,60.48-10.08C253.89,208.65,265.41,197.13,261.09,178.41Z"/></g></g></svg>