<svg xmlns="http://www.w3.org/2000/svg" xmlns:xlink="http://www.w3.org/1999/xlink" viewBox="0 0 1020.28 729.03"><defs><style>.cls-1,.cls-12{fill:#413b4e;}.cls-11,.cls-13,.cls-15,.cls-18,.cls-2,.cls-4,.cls-9{fill:none;}.cls-11,.cls-12,.cls-15,.cls-19,.cls-2,.cls-4,.cls-7,.cls-8,.cls-9{stroke:#000;}.cls-11,.cls-12,.cls-13,.cls-15,.cls-18,.cls-19,.cls-2,.cls-7,.cls-8{stroke-miterlimit:10;}.cls-12,.cls-19,.cls-2,.cls-4,.cls-7,.cls-8{stroke-width:0.72px;}.cls-3,.cls-7{fill:#e3e3e3;}.cls-4,.cls-9{stroke-linecap:round;stroke-linejoin:round;}.cls-19,.cls-5{fill:#35303d;}.cls-6{fill:#d7d7d7;}.cls-14,.cls-8{fill:#c9c9c9;}.cls-9{stroke-width:0.8px;}.cls-10{fill:#adadad;}.cls-11{stroke-width:0.72px;}.cls-13{stroke:#413b4e;stroke-width:1.44px;}.cls-15{stroke-width:0.38px;}.cls-16{fill:#71648b;}.cls-17{fill:url(#linear-gradient);}.cls-18{stroke:#e3e3e3;stroke-width:3.56px;}</style><linearGradient id="linear-gradient" x1="390.94" y1="164.29" x2="730.27" y2="383.28" gradientTransform="translate(141.54 878.78) rotate(-90)" gradientUnits="userSpaceOnUse"><stop offset="0" stop-color="#413b4e"/><stop offset="0.47" stop-color="#3f3a4c"/><stop offset="0.64" stop-color="#3a3445"/><stop offset="0.76" stop-color="#302c3a"/><stop offset="0.86" stop-color="#221f29"/><stop offset="0.95" stop-color="#100e13"/><stop offset="1"/></linearGradient></defs><g id="Layer_2" data-name="Layer 2"><g id="Basing"><path class="cls-1" d="M292.55,27.92a12.07,12.07,0,0,1-8.25-10.07l-.6-8.53c-.31-4.38,2.91-7,7.15-5.88L395.63,31.76a12.06,12.06,0,0,1,8.26,10.05l.63,9.06c.31,4.38-2.9,7-7.14,5.85Z"/><path class="cls-2" d="M292.55,27.92a12.07,12.07,0,0,1-8.25-10.07l-.6-8.53c-.31-4.38,2.91-7,7.15-5.88L395.63,31.76a12.06,12.06,0,0,1,8.26,10.05l.63,9.06c.31,4.38-2.9,7-7.14,5.85Z"/><path class="cls-3" d="M322.72,16.17c-4.6-1.18-9-5.63-9.73-9.89s2.4-6.8,7-5.64L365.43,12c4.61,1.16,9,5.67,9.78,10s-2.37,7-7,5.77Z"/><path class="cls-4" d="M322.72,16.17c-4.6-1.18-9-5.63-9.73-9.89s2.4-6.8,7-5.64L365.43,12c4.61,1.16,9,5.67,9.78,10s-2.37,7-7,5.77Z"/><path class="cls-5" d="M871.61,424.36l15.44-20.75s9.54,8.8,55.63,10.38v20.17S870.66,437.49,871.61,424.36Z"/><path class="cls-1" d="M871.61,425.69l15.44-18.05s9.54,7.66,55.63,9v17.54S870.66,437.1,871.61,425.69Z"/><path class="cls-2" d="M871.61,424.36l15.44-20.75s9.54,8.8,55.63,10.38v20.17S870.66,437.49,871.61,424.36Z"/><path class="cls-5" d="M986.8,440s13.13,11.08,27.66,4.63c0,0,12.29-9.67,0-35.8,0,0-5-7.55-27.66-2"/><path class="cls-1" d="M988.24,440.88a24.53,24.53,0,0,0,24.78,4s6.9-9.87,0-30.87c0,0-3.6-7.4-26.22-2.61"/><path class="cls-2" d="M986.8,440s13.13,11.08,27.66,4.63c0,0,12.29-9.67,0-35.8,0,0-5-7.55-27.66-2"/><path class="cls-6" d="M942.68,414c34.35-13.1,53.48-6.47,53.48-6.47,7.2,16.44,0,32.52,0,32.52-38.88,2.88-59.19-5.68-59.19-5.68Z"/><path class="cls-3" d="M941.66,417.07c33.61-12.71,55.38-6.94,55.38-6.94,5.22,14.71-.9,30.09-.9,30.09-38.23,3.34-59-5.69-59-5.69Z"/><path class="cls-2" d="M942.68,414c34.35-13.1,53.48-6.47,53.48-6.47,7.2,16.44,0,32.52,0,32.52-38.88,2.88-59.19-5.68-59.19-5.68Z"/><path class="cls-5" d="M871.61,293.57l15.44,20.76s9.54-8.8,55.63-10.38V283.78S870.66,280.45,871.61,293.57Z"/><path class="cls-1" d="M871.61,292.25l15.44,18.05s9.54-7.66,55.63-9V283.73S870.66,280.84,871.61,292.25Z"/><path class="cls-2" d="M871.61,293.57l15.44,20.76s9.54-8.8,55.63-10.38V283.78S870.66,280.45,871.61,293.57Z"/><path class="cls-5" d="M986.8,278s13.13-11.08,27.66-4.63c0,0,12.29,9.67,0,35.8,0,0-5,7.55-27.66,2"/><path class="cls-1" d="M988.24,277.06a24.53,24.53,0,0,1,24.78-4s6.9,9.87,0,30.87c0,0-3.6,7.4-26.22,2.61"/><path class="cls-2" d="M986.8,278s13.13-11.08,27.66-4.63c0,0,12.29,9.67,0,35.8,0,0-5,7.55-27.66,2"/><path class="cls-6" d="M942.68,304c34.35,13.1,53.48,6.47,53.48,6.47,7.2-16.44,0-32.52,0-32.52C957.28,275,937,283.58,937,283.58Z"/><path class="cls-3" d="M941.66,300.87c33.61,12.71,55.38,6.94,55.38,6.94,5.22-14.71-.9-30.09-.9-30.09-38.23-3.34-59,5.69-59,5.69Z"/><path class="cls-2" d="M942.68,304c34.35,13.1,53.48,6.47,53.48,6.47,7.2-16.44,0-32.52,0-32.52C957.28,275,937,283.58,937,283.58Z"/><path class="cls-7" d="M590.79,565s272.05-46.42,316.78-200.42l0-.14c-.11-2.73-7.23-150.21-316.81-200.84Z"/><path class="cls-6" d="M604.25,177l-14.09-12.83s288.64,36.16,317.5,199.34C907.66,363.46,867.92,219.14,604.25,177Z"/><path class="cls-1" d="M293.28,703.49a12.11,12.11,0,0,0-8,10.26l-.4,8.54c-.21,4.38,3.06,7,7.27,5.71l104.12-30.65a12.05,12.05,0,0,0,8-10.23l.43-9.08c.2-4.38-3.07-6.94-7.27-5.68Z"/><path class="cls-2" d="M293.28,703.49a12.11,12.11,0,0,0-8,10.26l-.4,8.54c-.21,4.38,3.06,7,7.27,5.71l104.12-30.65a12.05,12.05,0,0,0,8-10.23l.43-9.08c.2-4.38-3.07-6.94-7.27-5.68Z"/><path class="cls-8" d="M590.79,163.56s231.84,188.64,0,401.4"/><path class="cls-3" d="M271.12,692c0,26.41-19.36,38.42-43,26.7L43.43,627.22C19.76,615.5.4,584.3.4,557.89V168.24c0-26.41,19.67-56.95,43.72-67.88L227.41,17.1c24-10.92,43.71,1.75,43.71,28.16Z"/><path class="cls-9" d="M271.12,692c0,26.41-19.36,38.42-43,26.7L43.43,627.22C19.76,615.5.4,584.3.4,557.89V168.24c0-26.41,19.67-56.95,43.72-67.88L227.41,17.1c24-10.92,43.71,1.75,43.71,28.16Z"/><path class="cls-3" d="M329.2,712.66c-4.55,1.38-8.73,6-9.29,10.31s2.71,6.68,7.26,5.32l44.88-13.42c4.55-1.36,8.74-6.07,9.32-10.45s-2.68-6.84-7.23-5.45Z"/><path class="cls-4" d="M329.2,712.66c-4.55,1.38-8.73,6-9.29,10.31s2.71,6.68,7.26,5.32l44.88-13.42c4.55-1.36,8.74-6.07,9.32-10.45s-2.68-6.84-7.23-5.45Z"/><path class="cls-1" d="M81.76,453l27.55,10.5a4.32,4.32,0,0,0,4.53-1.19s78.8-94.59-1.84-198.83L84.44,274.37A8.53,8.53,0,0,0,80.51,278S34.24,373.8,81.76,453Z"/><path class="cls-4" d="M81.76,453l27.55,10.5a4.32,4.32,0,0,0,4.53-1.19s78.8-94.59-1.84-198.83L84.44,274.37A8.53,8.53,0,0,0,80.51,278S34.24,373.8,81.76,453Z"/><path class="cls-10" d="M591.1,434.63s90-73.14,0-139.7"/><path class="cls-11" d="M81.76,276.24l.41.49c72.76,86.65-.41,175.91-.41,175.91"/><path class="cls-12" d="M820.61,565l9.66-36.27S879.79,547.47,820.61,565Z"/><path class="cls-13" d="M814.28,341c-.17,1.33-1.88,2.41-3.79,2.42l-51,.07c-1.91,0-2.11.56-.45,1.24l40.18,17.47a4.07,4.07,0,0,1,2.43,3.64l0,.22a5.38,5.38,0,0,1-3.1,3.66l-37.4,17.43c-1.39.69-1.17,1.25.47,1.25H805c1.64,0,2.85,1.09,2.67,2.41l-.79,5.93a3.14,3.14,0,0,1-3.2,2.41H736.87a3.14,3.14,0,0,1-3.2-2.41l-.59-4.46a3.9,3.9,0,0,1,2.08-3.64L780.72,367c1.55-.68,1.59-1.78.07-2.45l-51.22-21.23c-1.73-.67-3.3-2.3-3.47-3.63l-.59-4.46c-.18-1.32,1.29-2.41,3.25-2.41l83-.08c2,0,3.43,1.08,3.26,2.41Z"/><polygon class="cls-5" points="591.1 419.78 591.1 413.85 607.5 409.51 605.19 415.01 591.1 419.78"/><path class="cls-5" d="M605.19,415l2.18-101.16,2.71,2.12s30.95,42.61-2.44,97Z"/><path class="cls-1" d="M607.36,409.8l-16.57,4.61V309.09l16.57,4.75S633.28,358,607.36,409.8Z"/><polygon class="cls-5" points="590.8 309.09 590.8 315.02 610.08 319.36 607.37 313.86 590.8 309.09"/><path class="cls-14" d="M320.94,720.27s.63-2.62,5.78-6,47.43-14.85,47.43-14.85,6-2.27,6.76,3"/><path class="cls-14" d="M314,9.08S319.08,15.86,322,16s46.93,11.74,46.93,11.74,3.8.74,5.62-2"/><path class="cls-5" d="M84.45,279.19S95.51,274,117,270.47l-4.81-6.54S81.3,274.84,82,275.88,81.58,275.66,84.45,279.19Z"/><path class="cls-15" d="M907.34,363.46l-.46-6.22a37,37,0,0,1,.72,6.22"/><path class="cls-2" d="M590.79,565s272.05-46.42,316.78-200.42l0-.14c-.11-2.73-7.23-150.21-316.81-200.84Z"/><path class="cls-3" d="M590.79,568.63c0,28.24-22.11,58.08-49.13,66.31L258.34,721.15c-27,8.23-49.13-8.15-49.13-36.4V52c0-28.24,22.32-45.37,49.6-38.06L541.19,89.6c27.28,7.31,49.6,36.41,49.6,64.65Z"/><path class="cls-2" d="M590.79,568.63c0,28.24-22.11,58.08-49.13,66.31L258.34,721.15c-27,8.23-49.13-8.15-49.13-36.4V52c0-28.24,22.32-45.37,49.6-38.06L541.19,89.6c27.28,7.31,49.6,36.41,49.6,64.65Z"/><path class="cls-16" d="M557.25,536.93c0,22.61-17.57,46.91-39,54l-215.43,71c-21.48,7.08-39-5.63-39-28.24V103c0-22.61,17.77-36,39.49-29.65l214.55,62.3c21.72,6.3,39.49,30,39.49,52.58Z"/><path class="cls-17" d="M542.57,530.63c0,20.92-16.16,43.65-35.91,50.52L314.3,648.09c-19.75,6.87-35.9-4.61-35.9-25.53V116.35c0-20.91,16.35-33,36.35-26.88l191.47,58.68c20,6.13,36.35,28.25,36.35,49.16Z"/><ellipse class="cls-3" cx="387.49" cy="524.71" rx="54.79" ry="38.16" transform="translate(-120.28 115.27) rotate(-14.67)"/><ellipse class="cls-3" cx="387.31" cy="202.48" rx="38.16" ry="54.79" transform="translate(93.33 525.87) rotate(-75.33)"/><path class="cls-18" d="M456.61,454.15s113.22-79.24,0-168.64"/><path class="cls-19" d="M693.83,537.24s8.57,15.12,64.73,13.68l7.2-30.24s-1.45-5.29-16.56-5.52S693.83,537.24,693.83,537.24Z"/><path class="cls-1" d="M694.76,538s8.37,13.36,63.25,12.09l7-26.72s-1.41-4.67-16.18-4.88S694.76,538,694.76,538Z"/><path class="cls-2" d="M693.83,537.24s8.57,15.12,64.73,13.68l7.2-30.24s-1.45-5.29-16.56-5.52S693.83,537.24,693.83,537.24Z"/><path class="cls-6" d="M759.52,550.92s8.56,28.8,52.78,28.8c0,0,28.53-23,14.27-69.12,0,0-28.53-10.08-59.92,10.08C766.65,520.68,755.24,532.2,759.52,550.92Z"/><path class="cls-4" d="M322.72,16.17c-4.6-1.18-9-5.63-9.73-9.89s2.4-6.8,7-5.64L365.43,12c4.61,1.16,9,5.67,9.78,10s-2.37,7-7,5.77Z"/><path class="cls-4" d="M322.72,16.17c-4.6-1.18-9-5.63-9.73-9.89s2.4-6.8,7-5.64L365.43,12c4.61,1.16,9,5.67,9.78,10s-2.37,7-7,5.77Z"/><path class="cls-4" d="M329.2,712.66c-4.55,1.38-8.73,6-9.29,10.31s2.71,6.68,7.26,5.32l44.88-13.42c4.55-1.36,8.74-6.07,9.32-10.45s-2.68-6.84-7.23-5.45Z"/><path class="cls-4" d="M81.76,453l27.55,10.5a4.32,4.32,0,0,0,4.53-1.19s78.8-94.59-1.84-198.83L84.44,274.37A8.53,8.53,0,0,0,80.51,278S34.24,373.8,81.76,453Z"/><path class="cls-11" d="M81.76,276.24l.41.49c72.76,86.65-.41,175.91-.41,175.91"/></g><g id="Shadows"><path class="cls-12" d="M819.68,154.32,831.21,190S879.68,168.78,819.68,154.32Z"/><path class="cls-19" d="M694.74,188.67s7.77-15.55,63.92-17l8.77,29.82s-1.17,5.36-16.26,6.38S694.74,188.67,694.74,188.67Z"/><path class="cls-1" d="M695.62,187.83s7.67-13.77,62.53-15.36l8.42,26.31s-1.17,4.74-15.91,5.72S695.62,187.83,695.62,187.83Z"/><path class="cls-2" d="M694.74,188.67s7.77-15.55,63.92-17l8.77,29.82s-1.17,5.36-16.26,6.38S694.74,188.67,694.74,188.67Z"/><path class="cls-6" d="M759.62,171.59s7-29.21,51.21-31.51c0,0,29.69,21.53,17.85,68.29,0,0-28,11.55-60.36-7C768.32,201.42,756.32,190.51,759.62,171.59Z"/><path class="cls-3" d="M758.75,173.27s8.49-30.2,51.77-32.45c0,0,26.52,16.26,20,60.32,0,0-30.34,10.36-62-5.85C768.56,195.29,757.84,188.76,758.75,173.27Z"/><path class="cls-4" d="M759.31,171.9s7.13-29.21,51.71-31.53c0,0,30,21.51,18,68.28,0,0-28.23,11.56-60.92-6.92C768.07,201.73,756,190.82,759.31,171.9Z"/><path class="cls-3" d="M759.28,550.65s9.94,28.64,53.28,28.64c0,0,25.92-21.89,16.25-61.42,0,0-29.4-8.91-60.16,8.92C768.65,526.79,755.09,534.09,759.28,550.65Z"/><path class="cls-4" d="M759.19,550.62s8.64,28.8,53.28,28.8c0,0,28.8-23,14.4-69.12,0,0-28.8-10.08-60.48,10.08C766.39,520.38,754.87,531.9,759.19,550.62Z"/></g></g></svg>