<svg xmlns="http://www.w3.org/2000/svg" xmlns:xlink="http://www.w3.org/1999/xlink" viewBox="0 0 729.03 1020.28"><defs><style>.cls-1,.cls-12{fill:#413b4e;}.cls-11,.cls-13,.cls-15,.cls-18,.cls-2,.cls-4,.cls-9{fill:none;}.cls-11,.cls-12,.cls-15,.cls-19,.cls-2,.cls-4,.cls-7,.cls-8,.cls-9{stroke:#000;}.cls-11,.cls-12,.cls-13,.cls-15,.cls-18,.cls-19,.cls-2,.cls-7,.cls-8{stroke-miterlimit:10;}.cls-12,.cls-19,.cls-2,.cls-4,.cls-7,.cls-8{stroke-width:0.72px;}.cls-3,.cls-7{fill:#e3e3e3;}.cls-4,.cls-9{stroke-linecap:round;stroke-linejoin:round;}.cls-19,.cls-5{fill:#35303d;}.cls-6{fill:#d7d7d7;}.cls-14,.cls-8{fill:#c9c9c9;}.cls-9{stroke-width:0.8px;}.cls-10{fill:#adadad;}.cls-11{stroke-width:0.72px;}.cls-13{stroke:#413b4e;stroke-width:1.44px;}.cls-15{stroke-width:0.38px;}.cls-16{fill:#71648b;}.cls-17{fill:url(#linear-gradient);}.cls-18{stroke:#e3e3e3;stroke-width:3.56px;}</style><linearGradient id="linear-gradient" x1="249.4" y1="305.79" x2="588.73" y2="524.79" gradientTransform="translate(737.24 1020.24) rotate(180)" gradientUnits="userSpaceOnUse"><stop offset="0" stop-color="#413b4e"/><stop offset="0.47" stop-color="#3f3a4c"/><stop offset="0.64" stop-color="#3a3445"/><stop offset="0.76" stop-color="#302c3a"/><stop offset="0.86" stop-color="#221f29"/><stop offset="0.95" stop-color="#100e13"/><stop offset="1"/></linearGradient></defs><g id="Layer_2" data-name="Layer 2"><g id="Basing"><path class="cls-1" d="M27.92,727.73A12.07,12.07,0,0,1,17.85,736l-8.53.6c-4.38.31-7-2.91-5.88-7.15L31.76,624.65a12.06,12.06,0,0,1,10.05-8.26l9.06-.63c4.38-.31,7,2.9,5.85,7.14Z"/><path class="cls-2" d="M27.92,727.73A12.07,12.07,0,0,1,17.85,736l-8.53.6c-4.38.31-7-2.91-5.88-7.15L31.76,624.65a12.06,12.06,0,0,1,10.05-8.26l9.06-.63c4.38-.31,7,2.9,5.85,7.14Z"/><path class="cls-3" d="M16.17,697.56c-1.18,4.6-5.63,9-9.89,9.73s-6.8-2.4-5.64-7L12,654.85c1.16-4.61,5.67-9,10-9.78s7,2.37,5.77,7Z"/><path class="cls-4" d="M16.17,697.56c-1.18,4.6-5.63,9-9.89,9.73s-6.8-2.4-5.64-7L12,654.85c1.16-4.61,5.67-9,10-9.78s7,2.37,5.77,7Z"/><path class="cls-5" d="M424.36,148.67l-20.75-15.44s8.8-9.54,10.38-55.63h20.17S437.49,149.62,424.36,148.67Z"/><path class="cls-1" d="M425.69,148.67l-18.05-15.44s7.66-9.54,9-55.63h17.54S437.1,149.62,425.69,148.67Z"/><path class="cls-2" d="M424.36,148.67l-20.75-15.44s8.8-9.54,10.38-55.63h20.17S437.49,149.62,424.36,148.67Z"/><path class="cls-5" d="M440,33.48s11.08-13.13,4.63-27.66c0,0-9.67-12.29-35.8,0,0,0-7.55,5-2,27.66"/><path class="cls-1" d="M440.88,32a24.53,24.53,0,0,0,4-24.78S435,.36,414,7.26c0,0-7.4,3.6-2.61,26.22"/><path class="cls-2" d="M440,33.48s11.08-13.13,4.63-27.66c0,0-9.67-12.29-35.8,0,0,0-7.55,5-2,27.66"/><path class="cls-6" d="M414,77.6c-13.1-34.35-6.47-53.48-6.47-53.48,16.44-7.2,32.52,0,32.52,0,2.88,38.88-5.68,59.19-5.68,59.19Z"/><path class="cls-3" d="M417.07,78.62c-12.71-33.61-6.94-55.38-6.94-55.38,14.71-5.22,30.09.9,30.09.9,3.34,38.23-5.69,59-5.69,59Z"/><path class="cls-2" d="M414,77.6c-13.1-34.35-6.47-53.48-6.47-53.48,16.44-7.2,32.52,0,32.52,0,2.88,38.88-5.68,59.19-5.68,59.19Z"/><path class="cls-5" d="M293.57,148.67l20.76-15.44s-8.8-9.54-10.38-55.63H283.78S280.45,149.62,293.57,148.67Z"/><path class="cls-1" d="M292.25,148.67l18.05-15.44s-7.66-9.54-9-55.63H283.73S280.84,149.62,292.25,148.67Z"/><path class="cls-2" d="M293.57,148.67l20.76-15.44s-8.8-9.54-10.38-55.63H283.78S280.45,149.62,293.57,148.67Z"/><path class="cls-5" d="M278,33.48s-11.08-13.13-4.63-27.66c0,0,9.67-12.29,35.8,0,0,0,7.55,5,2,27.66"/><path class="cls-1" d="M277.06,32a24.53,24.53,0,0,1-4-24.78s9.87-6.9,30.87,0c0,0,7.4,3.6,2.61,26.22"/><path class="cls-2" d="M278,33.48s-11.08-13.13-4.63-27.66c0,0,9.67-12.29,35.8,0,0,0,7.55,5,2,27.66"/><path class="cls-6" d="M304,77.6c13.1-34.35,6.47-53.48,6.47-53.48-16.44-7.2-32.52,0-32.52,0C275,63,283.58,83.31,283.58,83.31Z"/><path class="cls-3" d="M300.87,78.62c12.71-33.61,6.94-55.38,6.94-55.38-14.71-5.22-30.09.9-30.09.9-3.34,38.23,5.69,59,5.69,59Z"/><path class="cls-2" d="M304,77.6c13.1-34.35,6.47-53.48,6.47-53.48-16.44-7.2-32.52,0-32.52,0C275,63,283.58,83.31,283.58,83.31Z"/><path class="cls-7" d="M565,429.49s-46.42-272-200.42-316.78l-.14,0c-2.73.11-150.21,7.23-200.84,316.81Z"/><path class="cls-6" d="M177,416l-12.83,14.09s36.16-288.64,199.34-317.5C363.46,112.62,219.14,152.36,177,416Z"/><path class="cls-1" d="M703.49,727a12.11,12.11,0,0,0,10.26,8l8.54.41c4.38.2,7-3.07,5.71-7.28L697.35,624a12.05,12.05,0,0,0-10.23-8l-9.08-.43c-4.38-.2-6.94,3.07-5.68,7.27Z"/><path class="cls-2" d="M703.49,727a12.11,12.11,0,0,0,10.26,8l8.54.41c4.38.2,7-3.07,5.71-7.28L697.35,624a12.05,12.05,0,0,0-10.23-8l-9.08-.43c-4.38-.2-6.94,3.07-5.68,7.27Z"/><path class="cls-8" d="M163.56,429.49s188.64-231.84,401.4,0"/><path class="cls-3" d="M692,749.16c26.41,0,38.42,19.36,26.7,43L627.22,976.85c-11.72,23.67-42.92,43-69.33,43H168.24c-26.41,0-56.95-19.67-67.88-43.72L17.1,792.87c-10.92-24,1.75-43.71,28.16-43.71Z"/><path class="cls-9" d="M692,749.16c26.41,0,38.42,19.36,26.7,43L627.22,976.85c-11.72,23.67-42.92,43-69.33,43H168.24c-26.41,0-56.95-19.67-67.88-43.72L17.1,792.87c-10.92-24,1.75-43.71,28.16-43.71Z"/><path class="cls-3" d="M712.66,691.08c1.38,4.55,6,8.73,10.31,9.29s6.68-2.71,5.32-7.26l-13.42-44.88c-1.36-4.55-6.07-8.74-10.45-9.31s-6.84,2.67-5.45,7.22Z"/><path class="cls-4" d="M712.66,691.08c1.38,4.55,6,8.73,10.31,9.29s6.68-2.71,5.32-7.26l-13.42-44.88c-1.36-4.55-6.07-8.74-10.45-9.31s-6.84,2.67-5.45,7.22Z"/><path class="cls-1" d="M453,938.52,463.5,911a4.32,4.32,0,0,0-1.19-4.53s-94.59-78.8-198.83,1.84l10.89,27.56a8.53,8.53,0,0,0,3.65,3.93S373.8,986,453,938.52Z"/><path class="cls-4" d="M453,938.52,463.5,911a4.32,4.32,0,0,0-1.19-4.53s-94.59-78.8-198.83,1.84l10.89,27.56a8.53,8.53,0,0,0,3.65,3.93S373.8,986,453,938.52Z"/><path class="cls-10" d="M434.63,429.18s-73.14-90.05-139.7,0"/><path class="cls-11" d="M276.24,938.52l.49-.41c86.65-72.76,175.91.41,175.91.41"/><path class="cls-12" d="M565,199.67,528.77,190S547.47,140.49,565,199.67Z"/><path class="cls-13" d="M322.32,225.61c2,0,3.7,1.08,3.84,2.41l3.92,35.41c.15,1.32.89,1.47,1.66.34L354,234.61a7.75,7.75,0,0,1,5.26-2.06h.31a7.91,7.91,0,0,1,5.28,2l22.25,28.66c.79,1.13,1.53,1,1.68-.35L392.52,228c.14-1.33,1.87-2.41,3.83-2.41h8.82c2,0,3.41,1.08,3.2,2.41l-8.88,55.86a3.25,3.25,0,0,1-3.26,2.41H390.9a5.3,5.3,0,0,1-4.14-2.06l-25.89-36.1a2.11,2.11,0,0,0-3.39,0l-25.36,36.08a5.22,5.22,0,0,1-4.11,2.07h-5.33a3.26,3.26,0,0,1-3.27-2.41l-9-55.86c-.22-1.33,1.22-2.41,3.19-2.41Z"/><polygon class="cls-5" points="419.78 429.18 413.85 429.18 409.51 412.78 415.01 415.09 419.78 429.18"/><path class="cls-5" d="M415,415.09l-101.16-2.18L316,410.2s42.61-30.95,97,2.44Z"/><path class="cls-1" d="M409.8,412.92l4.61,16.57H309.09l4.75-16.57S358,387,409.8,412.92Z"/><polygon class="cls-5" points="309.09 429.48 315.02 429.48 319.36 410.2 313.86 412.91 309.09 429.48"/><path class="cls-14" d="M720.27,699.34s-2.62-.63-6-5.78-14.85-47.43-14.85-47.43-2.27-6,3-6.76"/><path class="cls-14" d="M9.08,706.25s6.78-5,6.89-7.93,11.74-46.93,11.74-46.93.74-3.8-2-5.62"/><path class="cls-5" d="M279.19,935.83s-5.21-11.06-8.72-32.52l-6.54,4.81s10.91,30.86,11.95,30.17S275.66,938.7,279.19,935.83Z"/><path class="cls-15" d="M363.46,112.94l-6.22.46a37,37,0,0,1,6.22-.72"/><path class="cls-2" d="M565,429.49s-46.42-272-200.42-316.78l-.14,0c-2.73.11-150.21,7.23-200.84,316.81Z"/><path class="cls-3" d="M568.63,429.49c28.24,0,58.08,22.11,66.31,49.13l86.21,283.32c8.23,27-8.15,49.13-36.4,49.13H52c-28.24,0-45.37-22.32-38.06-49.6L89.6,479.09c7.31-27.28,36.41-49.6,64.65-49.6Z"/><path class="cls-2" d="M568.63,429.49c28.24,0,58.08,22.11,66.31,49.13l86.21,283.32c8.23,27-8.15,49.13-36.4,49.13H52c-28.24,0-45.37-22.32-38.06-49.6L89.6,479.09c7.31-27.28,36.41-49.6,64.65-49.6Z"/><path class="cls-16" d="M536.93,463c22.61,0,46.91,17.58,54,39.05l71,215.43c7.08,21.48-5.63,39-28.24,39H103c-22.61,0-36-17.77-29.65-39.49l62.3-214.55c6.3-21.72,30-39.49,52.58-39.49Z"/><path class="cls-17" d="M530.63,477.71c20.92,0,43.65,16.16,50.52,35.91L648.09,706c6.87,19.75-4.61,35.91-25.53,35.91H116.35c-20.91,0-33-16.36-26.88-36.36l58.68-191.47c6.13-20,28.25-36.35,49.16-36.35Z"/><ellipse class="cls-3" cx="524.71" cy="632.79" rx="38.16" ry="54.79" transform="translate(-143.18 153.55) rotate(-14.67)"/><ellipse class="cls-3" cx="202.48" cy="632.97" rx="54.79" ry="38.16" transform="translate(-461.14 668.5) rotate(-75.33)"/><path class="cls-18" d="M454.15,563.67s-79.24-113.22-168.64,0"/><path class="cls-19" d="M537.24,326.45s15.12-8.57,13.68-64.73l-30.24-7.2s-5.29,1.45-5.52,16.56S537.24,326.45,537.24,326.45Z"/><path class="cls-1" d="M538,325.52s13.36-8.37,12.09-63.25l-26.72-7s-4.67,1.41-4.88,16.18S538,325.52,538,325.52Z"/><path class="cls-2" d="M537.24,326.45s15.12-8.57,13.68-64.73l-30.24-7.2s-5.29,1.45-5.52,16.56S537.24,326.45,537.24,326.45Z"/><path class="cls-6" d="M550.92,260.76s28.8-8.56,28.8-52.78c0,0-23-28.53-69.12-14.27,0,0-10.08,28.53,10.08,59.92C520.68,253.63,532.2,265,550.92,260.76Z"/><path class="cls-4" d="M16.17,697.56c-1.18,4.6-5.63,9-9.89,9.73s-6.8-2.4-5.64-7L12,654.85c1.16-4.61,5.67-9,10-9.78s7,2.37,5.77,7Z"/><path class="cls-4" d="M16.17,697.56c-1.18,4.6-5.63,9-9.89,9.73s-6.8-2.4-5.64-7L12,654.85c1.16-4.61,5.67-9,10-9.78s7,2.37,5.77,7Z"/><path class="cls-4" d="M712.66,691.08c1.38,4.55,6,8.73,10.31,9.29s6.68-2.71,5.32-7.26l-13.42-44.88c-1.36-4.55-6.07-8.74-10.45-9.31s-6.84,2.67-5.45,7.22Z"/><path class="cls-4" d="M453,938.52,463.5,911a4.32,4.32,0,0,0-1.19-4.53s-94.59-78.8-198.83,1.84l10.89,27.56a8.53,8.53,0,0,0,3.65,3.93S373.8,986,453,938.52Z"/><path class="cls-11" d="M276.24,938.52l.49-.41c86.65-72.76,175.91.41,175.91.41"/></g><g id="Shadows"><path class="cls-12" d="M154.32,200.6,190,189.07S168.78,140.6,154.32,200.6Z"/><path class="cls-19" d="M188.67,325.54s-15.55-7.77-17-63.92l29.82-8.77s5.36,1.17,6.38,16.26S188.67,325.54,188.67,325.54Z"/><path class="cls-1" d="M187.83,324.66s-13.77-7.67-15.36-62.53l26.31-8.42s4.74,1.17,5.72,15.91S187.83,324.66,187.83,324.66Z"/><path class="cls-2" d="M188.67,325.54s-15.55-7.77-17-63.92l29.82-8.77s5.36,1.17,6.38,16.26S188.67,325.54,188.67,325.54Z"/><path class="cls-6" d="M171.59,260.66s-29.21-7.05-31.51-51.21c0,0,21.53-29.69,68.29-17.85,0,0,11.55,28-7,60.36C201.42,252,190.51,264,171.59,260.66Z"/><path class="cls-3" d="M173.27,261.53s-30.2-8.49-32.45-51.77c0,0,16.26-26.52,60.32-20,0,0,10.36,30.34-5.85,62C195.29,251.72,188.76,262.44,173.27,261.53Z"/><path class="cls-4" d="M171.9,261s-29.21-7.13-31.53-51.71c0,0,21.51-30,68.28-18,0,0,11.56,28.23-6.92,60.92C201.73,252.21,190.82,264.31,171.9,261Z"/><path class="cls-3" d="M550.65,261s28.64-9.94,28.64-53.28c0,0-21.89-25.92-61.42-16.25,0,0-8.91,29.4,8.92,60.16C526.79,251.63,534.09,265.19,550.65,261Z"/><path class="cls-4" d="M550.62,261.09s28.8-8.64,28.8-53.28c0,0-23-28.8-69.12-14.4,0,0-10.08,28.8,10.08,60.48C520.38,253.89,531.9,265.41,550.62,261.09Z"/></g></g></svg>